# Blender 3.5.1
# www.blender.org
mtllib boost.mtl
o Esfera_icosaédrica
v -0.350131 -1.000000 0.000000
v -0.626519 -0.447220 0.850649
v -1.244557 -0.447216 0.000000
v -0.626519 -0.447220 -0.850649
v -1.073738 0.447220 0.525725
v -1.073738 0.447220 -0.525725
v -0.184662 1.000000 0.000000
v -0.512586 -0.850654 0.499995
v -0.875861 -0.850652 0.000000
v -1.038320 -0.525736 0.499997
v -0.512586 -0.850654 -0.499995
v -1.038320 -0.525736 -0.499997
v -0.350131 0.000000 1.000000
v -1.301189 0.000000 0.309013
v -0.937917 0.000000 0.809017
v -0.937917 0.000000 -0.809017
v -1.301189 0.000000 -0.309013
v -0.350131 0.000000 -1.000000
v -0.613000 0.525738 0.809012
v -1.200779 0.525736 0.000000
v -0.613000 0.525738 -0.809012
v -0.187675 0.850654 0.499995
v -0.775454 0.850654 0.309011
v -0.775454 0.850654 -0.309011
v -0.187675 0.850654 -0.499995
v 1.402560 0.017099 -0.923058
v -0.597129 -0.017099 -0.923058
v 1.039095 0.206411 -0.905322
v -0.600567 0.172212 -0.905322
v 1.395818 0.388447 -0.852794
v -0.603872 0.354249 -0.852794
v 0.990030 0.556213 -0.767495
v -0.256787 0.522014 -0.767495
v 1.390102 0.703261 -0.652700
v -0.609588 0.669062 -0.652700
v 1.048093 0.823940 -0.512823
v -0.611779 0.789741 -0.512823
v 1.386283 0.913612 -0.353239
v -0.613407 0.879414 -0.353239
v 0.926905 0.968832 -0.180080
v -0.614409 0.934634 -0.180080
v 1.384942 0.987478 -0.000000
v -0.614748 0.953280 -0.000000
v 0.975806 0.968832 0.180080
v -0.614409 0.934634 0.180080
v 1.386283 0.913612 0.353239
v -0.613407 0.879414 0.353239
v 1.065700 0.823940 0.512823
v -0.611779 0.789741 0.512823
v 1.390102 0.703261 0.652700
v -0.609588 0.669062 0.652700
v 0.968808 0.556213 0.767495
v -0.606918 0.522014 0.767495
v 1.395818 0.388447 0.852794
v -0.603872 0.354249 0.852794
v 0.944018 0.206411 0.905322
v -0.600567 0.172212 0.905322
v 1.402560 0.017099 0.923058
v -0.597129 -0.017099 0.923058
v 1.041740 -0.172212 0.905322
v -0.593692 -0.206411 0.905322
v 1.409302 -0.354249 0.852794
v -0.590387 -0.388447 0.852794
v 1.159332 -0.522015 0.767495
v -0.587341 -0.556213 0.767495
v 1.415018 -0.669062 0.652700
v -0.584671 -0.703261 0.652700
v 1.096294 -0.789741 0.512823
v -0.582480 -0.823940 0.512823
v 1.768969 -0.879414 0.353239
v -0.580852 -0.913612 0.353239
v 1.498755 -0.934634 0.180080
v -0.579850 -0.968832 0.180080
v 1.420179 -0.953280 -0.000000
v -0.229380 -0.987478 -0.000000
v 1.204374 -0.934634 -0.180080
v -0.579850 -0.968832 -0.180080
v 1.418838 -0.879414 -0.353239
v -0.580852 -0.913612 -0.353239
v 1.148836 -0.789741 -0.512823
v -0.582480 -0.823940 -0.512823
v 1.415018 -0.669062 -0.652700
v -0.584671 -0.703261 -0.652700
v 1.107254 -0.522015 -0.767495
v -0.587341 -0.556213 -0.767495
v 1.409302 -0.354249 -0.852794
v -0.240256 -0.388447 -0.852794
v 1.072681 -0.172212 -0.905322
v -0.593692 -0.206411 -0.905322
vn -0.8897 -0.3304 0.3151
vn -0.5746 -0.3304 -0.7488
vn -0.9921 -0.1256 -0.0000
vn -0.4713 0.6617 0.5831
vn -0.7002 0.6617 -0.2680
vn -0.4713 0.6617 -0.5831
vn -0.2451 0.9695 -0.0000
vn -0.6071 0.7947 -0.0000
vn -0.7002 0.6617 0.2680
vn -0.5346 0.3304 -0.7779
vn -0.9050 0.3304 -0.2680
vn -0.9822 0.1876 -0.0000
vn -0.9050 0.3304 0.2680
vn -0.5346 0.3304 0.7779
vn -0.8026 0.1256 -0.5831
vn -0.7947 -0.1876 -0.5773
vn -0.8897 -0.3304 -0.3151
vn -0.8026 0.1256 0.5831
vn -0.7947 -0.1876 0.5773
vn -0.5746 -0.3304 0.7488
vn -0.4911 -0.7947 -0.3568
vn -0.7240 -0.6617 -0.1947
vn -0.7240 -0.6617 0.1947
vn -0.4911 -0.7947 0.3568
vn -0.1876 0.7947 0.5773
vn -0.1876 0.7947 -0.5773
vn -0.0924 0.9542 0.2845
vn -0.0924 0.9542 -0.2845
vn -0.3035 0.1876 0.9342
vn 0.2764 0.4472 0.8506
vn -0.3035 0.1876 -0.9342
vn 0.2764 0.4472 -0.8506
vn -0.4089 -0.6617 -0.6284
vn -0.3066 -0.1256 -0.9435
vn -0.4089 -0.6617 0.6284
vn -0.3066 -0.1256 0.9435
vn -0.2680 -0.9435 -0.1947
vn -0.2680 -0.9435 0.1947
vn 0.4376 -0.5163 -0.7362
vn 0.4376 -0.5163 0.7362
vn -0.0017 0.0916 -0.9958
vn -0.0053 0.2820 -0.9594
vn -0.0095 0.4519 -0.8920
vn -0.0130 0.6166 -0.7872
vn -0.0140 0.7485 -0.6630
vn -0.0164 0.8790 -0.4766
vn -0.0183 0.9453 -0.3257
vn -0.0193 0.9967 -0.0787
vn -0.0190 0.9965 0.0816
vn -0.0180 0.9462 0.3232
vn -0.0163 0.8786 0.4773
vn -0.0139 0.7490 0.6624
vn -0.0120 0.6258 0.7799
vn -0.0085 0.4445 0.8957
vn -0.0055 0.2835 0.9590
vn -0.0018 0.0912 0.9958
vn 0.0018 -0.0950 0.9955
vn 0.0051 -0.2724 0.9622
vn 0.0084 -0.4581 0.8889
vn 0.0111 -0.6092 0.7929
vn 0.0142 -0.7650 0.6439
vn 0.0146 -0.8582 0.5130
vn 0.0148 -0.9559 0.2934
vn 0.0182 -0.9930 0.1166
vn 0.0197 -0.9908 -0.1336
vn 0.0173 -0.9556 -0.2941
vn 0.0159 -0.8659 -0.5000
vn 0.0140 -0.7636 -0.6456
vn 0.0113 -0.6079 -0.7939
vn 0.0096 -0.4679 -0.8838
vn 0.0055 -0.2676 -0.9635
vn 0.0018 -0.0948 -0.9955
vt 0.000000 0.000000
vt 1.000000 0.157461
vt 0.818182 0.157461
vt 0.636364 0.157461
vt 0.000000 0.314921
vt 0.909091 0.314921
vt 0.727273 0.314921
vt 0.818182 0.472382
vt 0.954545 0.078731
vt 0.772727 0.078731
vt 0.863636 0.078731
vt 0.909091 0.157461
vt 0.681818 0.078731
vt 0.727273 0.157461
vt 0.000000 0.000000
vt 0.863636 0.236191
vt 0.954545 0.236191
vt 0.045455 0.236191
vt 0.681818 0.236191
vt 0.772727 0.236191
vt 0.000000 0.000000
vt 0.090910 0.314921
vt 0.818182 0.314921
vt 0.636364 0.314921
vt 0.000000 0.000000
vt 0.863636 0.393651
vt 0.045455 0.393651
vt 0.772727 0.393651
vt 0.681818 0.393651
vt 0.000000 0.000000
vt 1.000000 0.500000
vt 0.000000 0.500000
vt 1.000000 1.000000
vt 0.000000 1.000000
vt 0.968750 0.500000
vt 0.968750 1.000000
vt 0.937500 0.500000
vt 0.937500 1.000000
vt 0.906250 0.500000
vt 0.906250 1.000000
vt 0.875000 0.500000
vt 0.875000 1.000000
vt 0.843750 0.500000
vt 0.843750 1.000000
vt 0.812500 0.500000
vt 0.812500 1.000000
vt 0.781250 0.500000
vt 0.781250 1.000000
vt 0.750000 0.500000
vt 0.750000 1.000000
vt 0.718750 0.500000
vt 0.718750 1.000000
vt 0.687500 0.500000
vt 0.687500 1.000000
vt 0.656250 0.500000
vt 0.656250 1.000000
vt 0.625000 0.500000
vt 0.625000 1.000000
vt 0.593750 0.500000
vt 0.593750 1.000000
vt 0.562500 0.500000
vt 0.562500 1.000000
vt 0.531250 0.500000
vt 0.531250 1.000000
vt 0.500000 0.500000
vt 0.500000 1.000000
vt 0.468750 0.500000
vt 0.468750 1.000000
vt 0.437500 0.500000
vt 0.437500 1.000000
vt 0.406250 0.500000
vt 0.406250 1.000000
vt 0.375000 0.500000
vt 0.375000 1.000000
vt 0.343750 0.500000
vt 0.343750 1.000000
vt 0.312500 0.500000
vt 0.312500 1.000000
vt 0.281250 0.500000
vt 0.281250 1.000000
vt 0.250000 0.500000
vt 0.250000 1.000000
vt 0.218750 0.500000
vt 0.218750 1.000000
vt 0.187500 0.500000
vt 0.187500 1.000000
vt 0.156250 0.500000
vt 0.156250 1.000000
vt 0.125000 0.500000
vt 0.125000 1.000000
vt 0.093750 0.500000
vt 0.093750 1.000000
vt 0.062500 0.500000
vt 0.062500 1.000000
vt 0.031250 0.500000
vt 0.031250 1.000000
s 0
f 3/3/1 10/12/1 14/16/1
f 4/4/2 12/14/2 16/19/2
f 3/3/3 14/16/3 17/20/3
f 5/5/4 19/22/4 23/27/4
f 6/7/5 20/23/5 24/28/5
f 21/24/6 6/7/6 24/29/6
f 24/28/7 23/26/7 7/8/7
f 24/28/8 20/23/8 23/26/8
f 20/23/9 5/6/9 23/26/9
f 16/19/10 6/7/10 21/24/10
f 17/20/11 20/23/11 6/7/11
f 17/20/12 14/16/12 20/23/12
f 14/16/13 5/6/13 20/23/13
f 15/18/14 19/22/14 5/5/14
f 16/19/15 17/20/15 6/7/15
f 16/19/16 12/14/16 17/20/16
f 12/14/17 3/3/17 17/20/17
f 14/16/18 15/17/18 5/6/18
f 14/16/19 10/12/19 15/17/19
f 10/12/20 2/2/20 15/17/20
f 11/13/21 9/10/21 12/14/21
f 9/10/22 3/3/22 12/14/22
f 9/11/23 10/12/23 3/3/23
f 9/11/24 8/9/24 10/12/24
f 22/25/25 23/27/25 19/22/25
f 24/29/26 25/30/26 21/24/26
f 23/27/27 22/25/27 7/8/27
f 24/29/28 7/8/28 25/30/28
f 19/22/29 15/18/29 13/15/29
f 19/22/30 13/15/30 22/25/30
f 16/19/31 21/24/31 18/21/31
f 21/24/32 25/30/32 18/21/32
f 12/14/33 4/4/33 11/13/33
f 16/19/34 18/21/34 4/4/34
f 10/12/35 8/9/35 2/2/35
f 15/18/36 2/2/36 13/15/36
f 9/10/37 11/13/37 1/1/37
f 1/1/38 8/9/38 9/11/38
f 11/13/39 4/4/39 18/21/39
f 8/9/40 13/15/40 2/2/40
f 26/31/41 27/33/41 29/36/41 28/35/41
f 28/35/42 29/36/42 31/38/42 30/37/42
f 30/37/43 31/38/43 33/40/43 32/39/43
f 32/39/44 33/40/44 35/42/44 34/41/44
f 34/41/45 35/42/45 37/44/45 36/43/45
f 36/43/46 37/44/46 39/46/46 38/45/46
f 38/45/47 39/46/47 41/48/47 40/47/47
f 40/47/48 41/48/48 43/50/48 42/49/48
f 42/49/49 43/50/49 45/52/49 44/51/49
f 44/51/50 45/52/50 47/54/50 46/53/50
f 46/53/51 47/54/51 49/56/51 48/55/51
f 48/55/52 49/56/52 51/58/52 50/57/52
f 50/57/53 51/58/53 53/60/53 52/59/53
f 52/59/54 53/60/54 55/62/54 54/61/54
f 54/61/55 55/62/55 57/64/55 56/63/55
f 56/63/56 57/64/56 59/66/56 58/65/56
f 58/65/57 59/66/57 61/68/57 60/67/57
f 60/67/58 61/68/58 63/70/58 62/69/58
f 62/69/59 63/70/59 65/72/59 64/71/59
f 64/71/60 65/72/60 67/74/60 66/73/60
f 66/73/61 67/74/61 69/76/61 68/75/61
f 68/75/62 69/76/62 71/78/62 70/77/62
f 70/77/63 71/78/63 73/80/63 72/79/63
f 72/79/64 73/80/64 75/82/64 74/81/64
f 74/81/65 75/82/65 77/84/65 76/83/65
f 76/83/66 77/84/66 79/86/66 78/85/66
f 78/85/67 79/86/67 81/88/67 80/87/67
f 80/87/68 81/88/68 83/90/68 82/89/68
f 82/89/69 83/90/69 85/92/69 84/91/69
f 84/91/70 85/92/70 87/94/70 86/93/70
f 86/93/71 87/94/71 89/96/71 88/95/71
f 88/95/72 89/96/72 27/34/72 26/32/72
